<?xml version="1.0" standalone="no"?>
<!DOCTYPE svg PUBLIC "-//W3C//DTD SVG 20010904//EN"
 "http://www.w3.org/TR/2001/REC-SVG-20010904/DTD/svg10.dtd">
<svg version="1.0" xmlns="http://www.w3.org/2000/svg"
 width="1024.000000pt" height="1024.000000pt" viewBox="0 0 1024.000000 1024.000000"
 preserveAspectRatio="xMidYMid meet">

<g transform="translate(0.000000,1024.000000) scale(0.100000,-0.100000)"
fill="#000000" stroke="none">
<path d="M0 5120 l0 -5120 5120 0 5120 0 0 5120 0 5120 -5120 0 -5120 0 0
-5120z m2474 848 l46 -53 -382 -5 c-294 -4 -391 -9 -418 -19 -136 -54 -207
-151 -255 -348 -30 -123 -119 -585 -141 -734 -25 -171 -4 -282 68 -364 50 -57
89 -75 160 -75 108 1 149 36 317 268 97 134 131 170 191 203 18 10 83 15 233
19 114 3 207 4 207 2 0 -2 -18 -25 -41 -52 l-40 -48 -147 -3 c-125 -4 -152 -7
-181 -24 -21 -13 -77 -80 -151 -183 -143 -199 -158 -215 -239 -255 -57 -28
-75 -32 -146 -32 -61 0 -91 5 -127 22 -102 47 -182 155 -209 281 -7 36 -9 98
-6 167 9 167 110 738 162 910 55 183 174 312 329 356 52 15 107 18 393 18
l331 1 46 -52z m731 38 c165 -44 283 -173 320 -351 26 -124 13 -242 -39 -343
-26 -51 -138 -190 -254 -314 -40 -43 -72 -80 -72 -83 0 -3 89 -106 198 -228
110 -123 204 -233 211 -245 29 -55 -20 -122 -89 -122 -43 0 -68 24 -308 298
l-139 160 -114 -126 c-63 -70 -158 -173 -213 -229 -92 -96 -101 -103 -138
-103 -52 0 -88 37 -88 90 0 35 15 54 206 261 113 123 207 229 210 235 3 7 -45
72 -107 145 -139 167 -209 265 -209 295 0 24 43 64 69 64 23 0 50 -25 221
-208 l153 -163 159 158 c201 200 223 238 216 370 -6 111 -37 182 -109 247 -79
71 -168 91 -277 62 -29 -7 -52 -11 -52 -8 0 11 84 114 108 133 29 22 68 24
137 5z m1270 -291 c72 -27 139 -98 162 -171 25 -82 25 -345 0 -420 -24 -69
-76 -127 -144 -160 -51 -25 -70 -29 -180 -32 l-123 -4 -2 -212 -3 -211 -80 -3
c-44 -2 -90 0 -102 3 l-23 5 0 609 c0 334 3 611 8 615 4 4 104 6 222 4 176 -4
224 -8 265 -23z m838 -3 c76 -34 123 -77 154 -140 27 -55 28 -62 28 -217 0
-150 -2 -163 -25 -210 -13 -27 -46 -71 -73 -97 l-49 -47 15 -43 c8 -24 47
-128 87 -231 39 -103 70 -196 68 -205 -3 -14 -18 -17 -98 -20 -52 -1 -100 1
-107 6 -6 4 -47 106 -91 227 l-80 220 -62 3 -61 3 2 -219 c1 -120 -1 -224 -5
-230 -10 -16 -188 -16 -204 0 -9 9 -12 159 -12 613 0 331 3 605 8 609 4 4 108
6 232 4 206 -3 229 -5 273 -26z m961 12 c8 -20 8 -148 0 -168 -5 -14 -32 -16
-190 -16 l-184 0 0 -155 0 -154 148 -3 147 -3 0 -95 0 -95 -147 -3 -148 -3 0
-159 0 -160 178 0 c125 0 182 -4 190 -12 7 -7 12 -43 12 -93 0 -50 -5 -86 -12
-93 -9 -9 -86 -12 -284 -12 -150 0 -279 3 -288 6 -14 6 -16 69 -16 613 0 334
3 611 7 614 3 4 136 7 294 7 252 0 288 -2 293 -16z m473 8 c6 -4 50 -174 98
-377 48 -204 89 -372 91 -374 1 -2 5 7 8 20 43 184 180 717 188 727 11 13 260
18 292 6 14 -6 16 -68 16 -609 0 -504 -2 -604 -14 -614 -9 -8 -46 -11 -103 -9
l-88 3 -5 435 c-3 239 -6 427 -8 418 -5 -35 -193 -682 -201 -692 -6 -7 -40 -9
-92 -6 l-82 5 -21 75 c-12 41 -56 198 -97 349 l-74 274 -5 -429 -5 -429 -88
-3 c-57 -2 -94 1 -103 9 -12 10 -14 108 -14 604 0 327 3 600 6 609 5 14 28 16
148 16 77 0 146 -4 153 -8z m1093 -606 c0 -551 -2 -614 -16 -620 -20 -8 -168
-8 -188 0 -14 6 -16 69 -16 613 0 334 3 611 7 614 3 4 53 7 110 7 l103 0 0
-614z m364 592 c7 -13 44 -102 81 -198 38 -96 71 -179 75 -183 4 -4 26 41 50
100 74 186 120 287 133 295 6 4 56 8 110 8 79 0 99 -3 104 -15 3 -9 -13 -55
-35 -103 -22 -48 -59 -127 -82 -177 -23 -49 -64 -138 -91 -196 -27 -58 -49
-110 -49 -116 0 -6 59 -140 131 -298 71 -158 129 -297 127 -309 -3 -19 -10
-21 -98 -24 -66 -2 -100 1 -112 10 -9 7 -45 83 -81 168 -36 85 -76 181 -89
213 l-25 58 -73 -178 c-40 -98 -84 -200 -97 -226 l-24 -48 -100 2 c-76 1 -102
5 -106 16 -3 7 8 44 25 81 17 37 78 171 136 297 58 127 106 237 106 245 0 8
-57 139 -126 292 -73 159 -124 283 -121 292 5 13 26 16 111 16 99 0 106 -1
120 -22z m-6203 -107 c26 -26 29 -36 29 -90 l0 -61 50 0 c60 0 114 -20 129
-48 20 -38 13 -82 -18 -113 -27 -26 -36 -29 -95 -29 l-66 0 0 -65 c0 -56 -4
-69 -24 -90 -34 -34 -71 -41 -112 -21 -41 19 -54 49 -54 122 l0 54 -66 0 c-59
0 -68 3 -95 29 -32 33 -37 67 -14 110 17 34 59 51 126 51 l49 0 0 61 c0 54 3
64 29 90 22 21 39 29 66 29 27 0 44 -8 66 -29z m1119 1 c57 -43 63 -140 11
-193 -54 -53 -150 -46 -195 14 -29 39 -29 115 0 153 39 53 130 66 184 26z"/>
<path d="M4190 5331 l0 -211 85 0 c97 0 130 12 152 54 21 41 29 207 13 274
-18 77 -34 86 -151 90 l-99 4 0 -211z"/>
<path d="M5023 5348 l4 -193 70 -3 c138 -6 182 32 191 163 6 97 -11 168 -50
200 -27 23 -38 25 -125 25 l-95 0 5 -192z"/>
</g>
</svg>
